<svg width="514" height="143" viewBox="0 0 514 143" fill="none" xmlns="http://www.w3.org/2000/svg">
<g opacity="0.3">
<path d="M0 71.0883V65.3244L100.492 74.382L0 71.0883Z" fill="url(#paint0_radial_0_1387)"/>
<path d="M0 123.512V119.395L69.8094 112.808L0 123.512Z" fill="url(#paint1_radial_0_1387)"/>
<path d="M60.8018 143H27.8675L201.547 97.9866L60.8018 143Z" fill="url(#paint2_radial_0_1387)"/>
<path d="M0 18.3896L127.515 50.2284L0 26.8983V18.3896Z" fill="url(#paint3_radial_0_1387)"/>
<path d="M69.8094 0.274472L180.435 50.2284L49.8237 0.274472H69.8094Z" fill="url(#paint4_radial_0_1387)"/>
<path d="M311.046 0.274472L293.875 27.1727L314.705 0.274472H311.046Z" fill="url(#paint5_radial_0_1387)"/>
<path d="M373.818 0.274472L333.284 27.1727L366.499 0.274472H373.818Z" fill="url(#paint6_radial_0_1387)"/>
<path d="M350.173 45.0134L442.22 0.274472H428.427L350.173 45.0134Z" fill="url(#paint7_radial_0_1387)"/>
<path d="M311.046 67.7946L513.719 15.096H514V6.03839C514 4.06219 513.437 2.65323 513.156 2.19578L311.046 67.7946Z" fill="url(#paint8_radial_0_1387)"/>
<path d="M448.497 61.1677C448.303 61.1938 448.179 61.2073 448.131 61.2073L448.497 61.1677C452.887 60.5778 493.424 53.546 514 49.9539V54.071L448.497 61.1677Z" fill="url(#paint9_radial_0_1387)"/>
<path d="M370.44 89.4779L513.719 93.8695L514 103.476L370.44 89.4779Z" fill="url(#paint10_radial_0_1387)"/>
<path d="M430.961 125.983L499.081 143H510.059C511.635 143 512.78 141.719 513.156 141.079L430.961 125.983Z" fill="url(#paint11_radial_0_1387)"/>
<path d="M366.781 143L325.402 115.004L374.1 143H366.781Z" fill="url(#paint12_radial_0_1387)"/>
<path d="M372.974 131.472L398.026 143H402.812L372.974 131.472Z" fill="url(#paint13_radial_0_1387)"/>
<path d="M303.164 125.708L320.898 143H323.432L303.164 125.708Z" fill="url(#paint14_radial_0_1387)"/>
<path d="M261.785 120.768L262.911 143H265.726L261.785 120.768Z" fill="url(#paint15_radial_0_1387)"/>
<path d="M214.214 125.708L199.295 143H203.235L214.214 125.708Z" fill="url(#paint16_radial_0_1387)"/>
<path d="M249.118 18.3896L246.866 0H249.118V18.3896Z" fill="url(#paint17_radial_0_1387)"/>
<path d="M206.613 0L219.28 17.5662L210.273 0H206.613Z" fill="url(#paint18_radial_0_1387)"/>
</g>
<defs>
<radialGradient id="paint0_radial_0_1387" cx="0" cy="0" r="1" gradientUnits="userSpaceOnUse" gradientTransform="translate(257 71.5) rotate(90) scale(71.5 257)">
<stop stop-color="white"/>
<stop offset="1" stop-color="white" stop-opacity="0"/>
</radialGradient>
<radialGradient id="paint1_radial_0_1387" cx="0" cy="0" r="1" gradientUnits="userSpaceOnUse" gradientTransform="translate(257 71.5) rotate(90) scale(71.5 257)">
<stop stop-color="white"/>
<stop offset="1" stop-color="white" stop-opacity="0"/>
</radialGradient>
<radialGradient id="paint2_radial_0_1387" cx="0" cy="0" r="1" gradientUnits="userSpaceOnUse" gradientTransform="translate(257 71.5) rotate(90) scale(71.5 257)">
<stop stop-color="white"/>
<stop offset="1" stop-color="white" stop-opacity="0"/>
</radialGradient>
<radialGradient id="paint3_radial_0_1387" cx="0" cy="0" r="1" gradientUnits="userSpaceOnUse" gradientTransform="translate(257 71.5) rotate(90) scale(71.5 257)">
<stop stop-color="white"/>
<stop offset="1" stop-color="white" stop-opacity="0"/>
</radialGradient>
<radialGradient id="paint4_radial_0_1387" cx="0" cy="0" r="1" gradientUnits="userSpaceOnUse" gradientTransform="translate(257 71.5) rotate(90) scale(71.5 257)">
<stop stop-color="white"/>
<stop offset="1" stop-color="white" stop-opacity="0"/>
</radialGradient>
<radialGradient id="paint5_radial_0_1387" cx="0" cy="0" r="1" gradientUnits="userSpaceOnUse" gradientTransform="translate(257 71.5) rotate(90) scale(71.5 257)">
<stop stop-color="white"/>
<stop offset="1" stop-color="white" stop-opacity="0"/>
</radialGradient>
<radialGradient id="paint6_radial_0_1387" cx="0" cy="0" r="1" gradientUnits="userSpaceOnUse" gradientTransform="translate(257 71.5) rotate(90) scale(71.5 257)">
<stop stop-color="white"/>
<stop offset="1" stop-color="white" stop-opacity="0"/>
</radialGradient>
<radialGradient id="paint7_radial_0_1387" cx="0" cy="0" r="1" gradientUnits="userSpaceOnUse" gradientTransform="translate(257 71.5) rotate(90) scale(71.5 257)">
<stop stop-color="white"/>
<stop offset="1" stop-color="white" stop-opacity="0"/>
</radialGradient>
<radialGradient id="paint8_radial_0_1387" cx="0" cy="0" r="1" gradientUnits="userSpaceOnUse" gradientTransform="translate(257 71.5) rotate(90) scale(71.5 257)">
<stop stop-color="white"/>
<stop offset="1" stop-color="white" stop-opacity="0"/>
</radialGradient>
<radialGradient id="paint9_radial_0_1387" cx="0" cy="0" r="1" gradientUnits="userSpaceOnUse" gradientTransform="translate(257 71.5) rotate(90) scale(71.5 257)">
<stop stop-color="white"/>
<stop offset="1" stop-color="white" stop-opacity="0"/>
</radialGradient>
<radialGradient id="paint10_radial_0_1387" cx="0" cy="0" r="1" gradientUnits="userSpaceOnUse" gradientTransform="translate(257 71.5) rotate(90) scale(71.5 257)">
<stop stop-color="white"/>
<stop offset="1" stop-color="white" stop-opacity="0"/>
</radialGradient>
<radialGradient id="paint11_radial_0_1387" cx="0" cy="0" r="1" gradientUnits="userSpaceOnUse" gradientTransform="translate(257 71.5) rotate(90) scale(71.5 257)">
<stop stop-color="white"/>
<stop offset="1" stop-color="white" stop-opacity="0"/>
</radialGradient>
<radialGradient id="paint12_radial_0_1387" cx="0" cy="0" r="1" gradientUnits="userSpaceOnUse" gradientTransform="translate(257 71.5) rotate(90) scale(71.5 257)">
<stop stop-color="white"/>
<stop offset="1" stop-color="white" stop-opacity="0"/>
</radialGradient>
<radialGradient id="paint13_radial_0_1387" cx="0" cy="0" r="1" gradientUnits="userSpaceOnUse" gradientTransform="translate(257 71.5) rotate(90) scale(71.5 257)">
<stop stop-color="white"/>
<stop offset="1" stop-color="white" stop-opacity="0"/>
</radialGradient>
<radialGradient id="paint14_radial_0_1387" cx="0" cy="0" r="1" gradientUnits="userSpaceOnUse" gradientTransform="translate(257 71.5) rotate(90) scale(71.5 257)">
<stop stop-color="white"/>
<stop offset="1" stop-color="white" stop-opacity="0"/>
</radialGradient>
<radialGradient id="paint15_radial_0_1387" cx="0" cy="0" r="1" gradientUnits="userSpaceOnUse" gradientTransform="translate(257 71.5) rotate(90) scale(71.5 257)">
<stop stop-color="white"/>
<stop offset="1" stop-color="white" stop-opacity="0"/>
</radialGradient>
<radialGradient id="paint16_radial_0_1387" cx="0" cy="0" r="1" gradientUnits="userSpaceOnUse" gradientTransform="translate(257 71.5) rotate(90) scale(71.5 257)">
<stop stop-color="white"/>
<stop offset="1" stop-color="white" stop-opacity="0"/>
</radialGradient>
<radialGradient id="paint17_radial_0_1387" cx="0" cy="0" r="1" gradientUnits="userSpaceOnUse" gradientTransform="translate(257 71.5) rotate(90) scale(71.5 257)">
<stop stop-color="white"/>
<stop offset="1" stop-color="white" stop-opacity="0"/>
</radialGradient>
<radialGradient id="paint18_radial_0_1387" cx="0" cy="0" r="1" gradientUnits="userSpaceOnUse" gradientTransform="translate(257 71.5) rotate(90) scale(71.5 257)">
<stop stop-color="white"/>
<stop offset="1" stop-color="white" stop-opacity="0"/>
</radialGradient>
</defs>
</svg>
